<?xml version="1.0" encoding="UTF-8"?>
<svg width="511px" height="512px" viewBox="0 0 511 512" version="1.1" xmlns="http://www.w3.org/2000/svg" xmlns:xlink="http://www.w3.org/1999/xlink">
    <title>bar-chart</title>
    <g id="Page-1" stroke="none" stroke-width="1" fill="none" fill-rule="evenodd">
        <g id="bar-chart" fill-rule="nonzero">
            <path d="M117.317416,234.667 L10.85875,234.667 C4.98225,234.667 0.212583984,239.446 0.212583984,245.334 L0.212583984,501.334 C0.212583984,507.221 4.98225,512 10.85875,512 L117.317416,512 C123.193916,512 127.963582,507.221 127.963582,501.333 L127.963582,245.333 C127.963582,239.445 123.214875,234.667 117.317416,234.667 Z" id="Path" fill="#7E18FA" className="bar-one"></path>
            <path d="M308.51625,0 L202.057584,0 C196.181084,0 191.411418,4.779 191.411418,10.667 L191.411418,501.334 C191.411418,507.222 196.181084,512.001 202.057584,512.001 L308.51625,512.001 C314.39275,512.001 319.162416,507.222 319.162416,501.334 L319.162416,10.667 C319.162416,4.779 314.39275,0 308.51625,0 Z" id="Path" fill="#01F1E4" className="bar-two"></path>
            <path d="M500.14125,106.667 L393.682584,106.667 C387.806084,106.667 383.036418,111.446 383.036418,117.334 L383.036418,501.334 C383.036418,507.222 387.806084,512.001 393.682584,512.001 L500.14125,512.001 C506.01775,512.001 510.787416,507.222 510.787416,501.334 L510.787416,117.334 C510.787416,111.445 506.01775,106.667 500.14125,106.667 Z" id="Path" fill="#F17907" className="bar-three"></path>
        </g>
    </g>
</svg>