<?xml version="1.0" encoding="UTF-8"?>
<svg width="512px" height="512px" viewBox="0 0 512 512" version="1.1" xmlns="http://www.w3.org/2000/svg" xmlns:xlink="http://www.w3.org/1999/xlink">
    <title>bar-chart</title>
    <g id="Page-1" stroke="none" stroke-width="1" fill="none" fill-rule="evenodd">
        <g id="bar-chart" fill-rule="nonzero">
            <path d="M117.545667,234.209559 L10.8795006,234.209559 C4.99154665,234.209559 0.212583984,238.979244 0.212583984,244.855766 L0.212583984,500.356741 C0.212583984,506.232265 4.99154665,511.001949 10.8795006,511.001949 L117.545667,511.001949 C123.433621,511.001949 128.212584,506.232265 128.212584,500.355743 L128.212584,244.854768 C128.212584,238.978246 123.454621,234.209559 117.545667,234.209559 Z" id="Path" fill="#7E18FA" className="histo-one"></path>
            <path d="M245.333083,0 L138.666917,0 C132.778963,0 128,4.76968421 128,10.6462066 L128,500.356741 C128,506.233263 132.778963,511.002947 138.666917,511.002947 L245.333083,511.002947 C251.221037,511.002947 256,506.233263 256,500.356741 L256,10.6462066 C256,4.76968421 251.221037,0 245.333083,0 Z" id="Path" fill="#01F1E4" className="histo-two"></path>
            <path d="M373.333083,106.791423 L266.666917,106.791423 C260.778963,106.791423 256,111.561107 256,117.43763 L256,500.689092 C256,506.565614 260.778963,511.335298 266.666917,511.335298 L373.333083,511.335298 C379.221037,511.335298 384,506.565614 384,500.689092 L384,117.43763 C384,111.560109 379.221037,106.791423 373.333083,106.791423 Z" id="Path" fill="#F17907" className="histo-three"></path>
            <path d="M501.333083,179.982472 L394.666917,179.982472 C388.778963,179.982472 384,183.889213 384,188.702541 L384,502.615229 C384,507.428557 388.778963,511.335298 394.666917,511.335298 L501.333083,511.335298 C507.221037,511.335298 512,507.428557 512,502.615229 L512,188.702541 C512,183.888396 507.221037,179.982472 501.333083,179.982472 Z" id="Path" fill="#83FC6C" className="histo-four"></path>
        </g>
    </g>
</svg>